ISO-10303-21;
HEADER;
/* Generated by software containing ST-Developer
 * from STEP Tools, Inc. (www.steptools.com) 
 */

FILE_DESCRIPTION(
/* description */ (''),
/* implementation_level */ '2;1');

FILE_NAME(
/* name */ 'BOTTOM PLATE.step',
/* time_stamp */ '2026-01-19T18:55:57-06:00',
/* author */ (''),
/* organization */ (''),
/* preprocessor_version */ 'ST-DEVELOPER v20.1',
/* originating_system */ 'Autodesk Translation Framework v14.21.0.0',
/* authorisation */ '');

FILE_SCHEMA (('AUTOMOTIVE_DESIGN { 1 0 10303 214 3 1 1 }'));
ENDSEC;

DATA;
#10=MECHANICAL_DESIGN_GEOMETRIC_PRESENTATION_REPRESENTATION('',(#17),#1007);
#11=SHAPE_REPRESENTATION_RELATIONSHIP('SRR','None',#1017,#12);
#12=ADVANCED_BREP_SHAPE_REPRESENTATION('',(#18),#1005);
#13=ITEM_DEFINED_TRANSFORMATION($,$,#599,#660);
#14=(
REPRESENTATION_RELATIONSHIP($,$,#1018,#1017)
REPRESENTATION_RELATIONSHIP_WITH_TRANSFORMATION(#13)
SHAPE_REPRESENTATION_RELATIONSHIP()
);
#15=CONTEXT_DEPENDENT_SHAPE_REPRESENTATION(#14,#1016);
#16=NEXT_ASSEMBLY_USAGE_OCCURRENCE('HACKPAD:1','HACKPAD:1','HACKPAD:1',
#1020,#1021,'HACKPAD:1');
#17=STYLED_ITEM('',(#1031),#18);
#18=MANIFOLD_SOLID_BREP('Body19',#585);
#19=FACE_BOUND('',#84,.T.);
#20=FACE_BOUND('',#85,.T.);
#21=FACE_BOUND('',#86,.T.);
#22=FACE_BOUND('',#87,.T.);
#23=FACE_BOUND('',#109,.T.);
#24=FACE_BOUND('',#110,.T.);
#25=FACE_BOUND('',#111,.T.);
#26=FACE_BOUND('',#112,.T.);
#27=FACE_BOUND('',#115,.T.);
#28=FACE_BOUND('',#118,.T.);
#29=FACE_BOUND('',#121,.T.);
#30=FACE_BOUND('',#124,.T.);
#31=PLANE('',#603);
#32=PLANE('',#604);
#33=PLANE('',#616);
#34=PLANE('',#619);
#35=PLANE('',#624);
#36=PLANE('',#627);
#37=PLANE('',#628);
#38=PLANE('',#629);
#39=PLANE('',#630);
#40=PLANE('',#631);
#41=PLANE('',#632);
#42=PLANE('',#645);
#43=PLANE('',#646);
#44=PLANE('',#647);
#45=PLANE('',#650);
#46=PLANE('',#653);
#47=PLANE('',#656);
#48=PLANE('',#659);
#49=FACE_OUTER_BOUND('',#81,.T.);
#50=FACE_OUTER_BOUND('',#82,.T.);
#51=FACE_OUTER_BOUND('',#83,.T.);
#52=FACE_OUTER_BOUND('',#88,.T.);
#53=FACE_OUTER_BOUND('',#89,.T.);
#54=FACE_OUTER_BOUND('',#90,.T.);
#55=FACE_OUTER_BOUND('',#91,.T.);
#56=FACE_OUTER_BOUND('',#92,.T.);
#57=FACE_OUTER_BOUND('',#93,.T.);
#58=FACE_OUTER_BOUND('',#94,.T.);
#59=FACE_OUTER_BOUND('',#95,.T.);
#60=FACE_OUTER_BOUND('',#96,.T.);
#61=FACE_OUTER_BOUND('',#97,.T.);
#62=FACE_OUTER_BOUND('',#98,.T.);
#63=FACE_OUTER_BOUND('',#99,.T.);
#64=FACE_OUTER_BOUND('',#100,.T.);
#65=FACE_OUTER_BOUND('',#101,.T.);
#66=FACE_OUTER_BOUND('',#102,.T.);
#67=FACE_OUTER_BOUND('',#103,.T.);
#68=FACE_OUTER_BOUND('',#104,.T.);
#69=FACE_OUTER_BOUND('',#105,.T.);
#70=FACE_OUTER_BOUND('',#106,.T.);
#71=FACE_OUTER_BOUND('',#107,.T.);
#72=FACE_OUTER_BOUND('',#108,.T.);
#73=FACE_OUTER_BOUND('',#113,.T.);
#74=FACE_OUTER_BOUND('',#114,.T.);
#75=FACE_OUTER_BOUND('',#116,.T.);
#76=FACE_OUTER_BOUND('',#117,.T.);
#77=FACE_OUTER_BOUND('',#119,.T.);
#78=FACE_OUTER_BOUND('',#120,.T.);
#79=FACE_OUTER_BOUND('',#122,.T.);
#80=FACE_OUTER_BOUND('',#123,.T.);
#81=EDGE_LOOP('',(#383,#384,#385,#386));
#82=EDGE_LOOP('',(#387,#388,#389,#390,#391,#392,#393,#394));
#83=EDGE_LOOP('',(#395,#396,#397,#398,#399,#400,#401,#402,#403,#404,#405,
#406,#407,#408,#409,#410,#411,#412));
#84=EDGE_LOOP('',(#413));
#85=EDGE_LOOP('',(#414));
#86=EDGE_LOOP('',(#415));
#87=EDGE_LOOP('',(#416));
#88=EDGE_LOOP('',(#417,#418,#419,#420));
#89=EDGE_LOOP('',(#421,#422,#423,#424));
#90=EDGE_LOOP('',(#425,#426,#427,#428));
#91=EDGE_LOOP('',(#429,#430,#431,#432));
#92=EDGE_LOOP('',(#433,#434,#435,#436));
#93=EDGE_LOOP('',(#437,#438,#439,#440));
#94=EDGE_LOOP('',(#441,#442,#443,#444));
#95=EDGE_LOOP('',(#445,#446,#447,#448));
#96=EDGE_LOOP('',(#449,#450,#451,#452));
#97=EDGE_LOOP('',(#453,#454,#455,#456));
#98=EDGE_LOOP('',(#457,#458,#459,#460,#461,#462));
#99=EDGE_LOOP('',(#463,#464,#465,#466));
#100=EDGE_LOOP('',(#467,#468,#469,#470,#471,#472,#473,#474));
#101=EDGE_LOOP('',(#475,#476,#477,#478));
#102=EDGE_LOOP('',(#479,#480,#481,#482));
#103=EDGE_LOOP('',(#483,#484,#485,#486));
#104=EDGE_LOOP('',(#487,#488,#489,#490));
#105=EDGE_LOOP('',(#491,#492,#493,#494));
#106=EDGE_LOOP('',(#495,#496,#497,#498));
#107=EDGE_LOOP('',(#499,#500,#501,#502));
#108=EDGE_LOOP('',(#503,#504,#505,#506,#507,#508,#509,#510));
#109=EDGE_LOOP('',(#511));
#110=EDGE_LOOP('',(#512));
#111=EDGE_LOOP('',(#513));
#112=EDGE_LOOP('',(#514));
#113=EDGE_LOOP('',(#515,#516,#517,#518));
#114=EDGE_LOOP('',(#519));
#115=EDGE_LOOP('',(#520));
#116=EDGE_LOOP('',(#521,#522,#523,#524));
#117=EDGE_LOOP('',(#525));
#118=EDGE_LOOP('',(#526));
#119=EDGE_LOOP('',(#527,#528,#529,#530));
#120=EDGE_LOOP('',(#531));
#121=EDGE_LOOP('',(#532));
#122=EDGE_LOOP('',(#533,#534,#535,#536));
#123=EDGE_LOOP('',(#537));
#124=EDGE_LOOP('',(#538));
#125=LINE('',#844,#175);
#126=LINE('',#847,#176);
#127=LINE('',#850,#177);
#128=LINE('',#852,#178);
#129=LINE('',#854,#179);
#130=LINE('',#856,#180);
#131=LINE('',#858,#181);
#132=LINE('',#860,#182);
#133=LINE('',#861,#183);
#134=LINE('',#864,#184);
#135=LINE('',#866,#185);
#136=LINE('',#868,#186);
#137=LINE('',#870,#187);
#138=LINE('',#872,#188);
#139=LINE('',#874,#189);
#140=LINE('',#876,#190);
#141=LINE('',#881,#191);
#142=LINE('',#885,#192);
#143=LINE('',#889,#193);
#144=LINE('',#901,#194);
#145=LINE('',#905,#195);
#146=LINE('',#906,#196);
#147=LINE('',#910,#197);
#148=LINE('',#913,#198);
#149=LINE('',#914,#199);
#150=LINE('',#918,#200);
#151=LINE('',#921,#201);
#152=LINE('',#925,#202);
#153=LINE('',#926,#203);
#154=LINE('',#929,#204);
#155=LINE('',#932,#205);
#156=LINE('',#935,#206);
#157=LINE('',#936,#207);
#158=LINE('',#938,#208);
#159=LINE('',#942,#209);
#160=LINE('',#944,#210);
#161=LINE('',#946,#211);
#162=LINE('',#947,#212);
#163=LINE('',#949,#213);
#164=LINE('',#950,#214);
#165=LINE('',#952,#215);
#166=LINE('',#957,#216);
#167=LINE('',#963,#217);
#168=LINE('',#969,#218);
#169=LINE('',#975,#219);
#170=LINE('',#978,#220);
#171=LINE('',#983,#221);
#172=LINE('',#988,#222);
#173=LINE('',#993,#223);
#174=LINE('',#998,#224);
#175=VECTOR('',#669,10.);
#176=VECTOR('',#672,10.);
#177=VECTOR('',#675,10.);
#178=VECTOR('',#676,10.);
#179=VECTOR('',#677,10.);
#180=VECTOR('',#678,10.);
#181=VECTOR('',#679,10.);
#182=VECTOR('',#680,10.);
#183=VECTOR('',#681,10.);
#184=VECTOR('',#684,10.);
#185=VECTOR('',#685,10.);
#186=VECTOR('',#686,10.);
#187=VECTOR('',#687,10.);
#188=VECTOR('',#688,10.);
#189=VECTOR('',#689,10.);
#190=VECTOR('',#690,10.);
#191=VECTOR('',#695,10.);
#192=VECTOR('',#698,10.);
#193=VECTOR('',#701,10.);
#194=VECTOR('',#714,10.);
#195=VECTOR('',#719,10.);
#196=VECTOR('',#720,10.);
#197=VECTOR('',#725,10.);
#198=VECTOR('',#728,10.);
#199=VECTOR('',#729,10.);
#200=VECTOR('',#734,10.);
#201=VECTOR('',#737,10.);
#202=VECTOR('',#742,10.);
#203=VECTOR('',#743,10.);
#204=VECTOR('',#746,10.);
#205=VECTOR('',#751,10.);
#206=VECTOR('',#754,10.);
#207=VECTOR('',#755,10.);
#208=VECTOR('',#758,10.);
#209=VECTOR('',#761,10.);
#210=VECTOR('',#762,10.);
#211=VECTOR('',#763,10.);
#212=VECTOR('',#764,10.);
#213=VECTOR('',#767,10.);
#214=VECTOR('',#768,10.);
#215=VECTOR('',#771,10.);
#216=VECTOR('',#776,2.99999999999999);
#217=VECTOR('',#783,3.);
#218=VECTOR('',#790,3.);
#219=VECTOR('',#797,3.00000000000001);
#220=VECTOR('',#802,10.);
#221=VECTOR('',#809,1.7);
#222=VECTOR('',#816,1.7);
#223=VECTOR('',#823,1.7);
#224=VECTOR('',#830,1.7);
#225=CIRCLE('',#601,2.);
#226=CIRCLE('',#602,2.);
#227=CIRCLE('',#605,2.);
#228=CIRCLE('',#606,5.);
#229=CIRCLE('',#607,5.);
#230=CIRCLE('',#608,5.);
#231=CIRCLE('',#609,5.);
#232=CIRCLE('',#610,1.7);
#233=CIRCLE('',#611,1.7);
#234=CIRCLE('',#612,1.7);
#235=CIRCLE('',#613,1.7);
#236=CIRCLE('',#615,2.);
#237=CIRCLE('',#618,5.);
#238=CIRCLE('',#621,5.);
#239=CIRCLE('',#623,5.);
#240=CIRCLE('',#626,5.);
#241=CIRCLE('',#634,2.99999999999999);
#242=CIRCLE('',#635,2.99999999999999);
#243=CIRCLE('',#637,3.);
#244=CIRCLE('',#638,3.);
#245=CIRCLE('',#640,3.);
#246=CIRCLE('',#641,3.);
#247=CIRCLE('',#643,3.00000000000001);
#248=CIRCLE('',#644,3.00000000000001);
#249=CIRCLE('',#649,1.7);
#250=CIRCLE('',#652,1.7);
#251=CIRCLE('',#655,1.7);
#252=CIRCLE('',#658,1.7);
#253=VERTEX_POINT('',#840);
#254=VERTEX_POINT('',#841);
#255=VERTEX_POINT('',#843);
#256=VERTEX_POINT('',#845);
#257=VERTEX_POINT('',#849);
#258=VERTEX_POINT('',#851);
#259=VERTEX_POINT('',#853);
#260=VERTEX_POINT('',#855);
#261=VERTEX_POINT('',#857);
#262=VERTEX_POINT('',#859);
#263=VERTEX_POINT('',#863);
#264=VERTEX_POINT('',#865);
#265=VERTEX_POINT('',#867);
#266=VERTEX_POINT('',#869);
#267=VERTEX_POINT('',#871);
#268=VERTEX_POINT('',#873);
#269=VERTEX_POINT('',#875);
#270=VERTEX_POINT('',#878);
#271=VERTEX_POINT('',#880);
#272=VERTEX_POINT('',#882);
#273=VERTEX_POINT('',#884);
#274=VERTEX_POINT('',#886);
#275=VERTEX_POINT('',#888);
#276=VERTEX_POINT('',#891);
#277=VERTEX_POINT('',#893);
#278=VERTEX_POINT('',#895);
#279=VERTEX_POINT('',#897);
#280=VERTEX_POINT('',#900);
#281=VERTEX_POINT('',#904);
#282=VERTEX_POINT('',#908);
#283=VERTEX_POINT('',#912);
#284=VERTEX_POINT('',#916);
#285=VERTEX_POINT('',#920);
#286=VERTEX_POINT('',#924);
#287=VERTEX_POINT('',#928);
#288=VERTEX_POINT('',#934);
#289=VERTEX_POINT('',#940);
#290=VERTEX_POINT('',#941);
#291=VERTEX_POINT('',#943);
#292=VERTEX_POINT('',#945);
#293=VERTEX_POINT('',#954);
#294=VERTEX_POINT('',#956);
#295=VERTEX_POINT('',#960);
#296=VERTEX_POINT('',#962);
#297=VERTEX_POINT('',#966);
#298=VERTEX_POINT('',#968);
#299=VERTEX_POINT('',#972);
#300=VERTEX_POINT('',#974);
#301=VERTEX_POINT('',#982);
#302=VERTEX_POINT('',#987);
#303=VERTEX_POINT('',#992);
#304=VERTEX_POINT('',#997);
#305=EDGE_CURVE('',#253,#254,#225,.T.);
#306=EDGE_CURVE('',#254,#255,#125,.T.);
#307=EDGE_CURVE('',#255,#256,#226,.F.);
#308=EDGE_CURVE('',#256,#253,#126,.T.);
#309=EDGE_CURVE('',#257,#255,#127,.T.);
#310=EDGE_CURVE('',#258,#254,#128,.T.);
#311=EDGE_CURVE('',#259,#258,#129,.T.);
#312=EDGE_CURVE('',#260,#259,#130,.T.);
#313=EDGE_CURVE('',#261,#260,#131,.T.);
#314=EDGE_CURVE('',#262,#261,#132,.T.);
#315=EDGE_CURVE('',#257,#262,#133,.T.);
#316=EDGE_CURVE('',#253,#263,#134,.T.);
#317=EDGE_CURVE('',#263,#264,#135,.T.);
#318=EDGE_CURVE('',#264,#265,#136,.T.);
#319=EDGE_CURVE('',#265,#266,#137,.T.);
#320=EDGE_CURVE('',#266,#267,#138,.T.);
#321=EDGE_CURVE('',#267,#268,#139,.T.);
#322=EDGE_CURVE('',#268,#269,#140,.T.);
#323=EDGE_CURVE('',#262,#269,#227,.T.);
#324=EDGE_CURVE('',#270,#261,#228,.T.);
#325=EDGE_CURVE('',#270,#271,#141,.T.);
#326=EDGE_CURVE('',#272,#271,#229,.T.);
#327=EDGE_CURVE('',#272,#273,#142,.T.);
#328=EDGE_CURVE('',#274,#273,#230,.T.);
#329=EDGE_CURVE('',#274,#275,#143,.T.);
#330=EDGE_CURVE('',#258,#275,#231,.T.);
#331=EDGE_CURVE('',#276,#276,#232,.T.);
#332=EDGE_CURVE('',#277,#277,#233,.T.);
#333=EDGE_CURVE('',#278,#278,#234,.T.);
#334=EDGE_CURVE('',#279,#279,#235,.T.);
#335=EDGE_CURVE('',#269,#280,#144,.T.);
#336=EDGE_CURVE('',#280,#257,#236,.F.);
#337=EDGE_CURVE('',#281,#268,#145,.T.);
#338=EDGE_CURVE('',#281,#280,#146,.T.);
#339=EDGE_CURVE('',#260,#282,#237,.T.);
#340=EDGE_CURVE('',#282,#270,#147,.T.);
#341=EDGE_CURVE('',#283,#282,#148,.T.);
#342=EDGE_CURVE('',#271,#283,#149,.T.);
#343=EDGE_CURVE('',#283,#284,#238,.T.);
#344=EDGE_CURVE('',#284,#272,#150,.T.);
#345=EDGE_CURVE('',#275,#285,#151,.T.);
#346=EDGE_CURVE('',#285,#259,#239,.T.);
#347=EDGE_CURVE('',#286,#274,#152,.T.);
#348=EDGE_CURVE('',#285,#286,#153,.T.);
#349=EDGE_CURVE('',#273,#287,#154,.T.);
#350=EDGE_CURVE('',#287,#286,#240,.T.);
#351=EDGE_CURVE('',#287,#284,#155,.T.);
#352=EDGE_CURVE('',#256,#288,#156,.T.);
#353=EDGE_CURVE('',#263,#288,#157,.T.);
#354=EDGE_CURVE('',#288,#281,#158,.T.);
#355=EDGE_CURVE('',#289,#290,#159,.T.);
#356=EDGE_CURVE('',#291,#289,#160,.T.);
#357=EDGE_CURVE('',#292,#291,#161,.T.);
#358=EDGE_CURVE('',#290,#292,#162,.T.);
#359=EDGE_CURVE('',#292,#267,#163,.T.);
#360=EDGE_CURVE('',#291,#264,#164,.T.);
#361=EDGE_CURVE('',#289,#265,#165,.T.);
#362=EDGE_CURVE('',#293,#293,#241,.T.);
#363=EDGE_CURVE('',#293,#294,#166,.T.);
#364=EDGE_CURVE('',#294,#294,#242,.T.);
#365=EDGE_CURVE('',#295,#295,#243,.T.);
#366=EDGE_CURVE('',#295,#296,#167,.T.);
#367=EDGE_CURVE('',#296,#296,#244,.T.);
#368=EDGE_CURVE('',#297,#297,#245,.T.);
#369=EDGE_CURVE('',#297,#298,#168,.T.);
#370=EDGE_CURVE('',#298,#298,#246,.T.);
#371=EDGE_CURVE('',#299,#299,#247,.T.);
#372=EDGE_CURVE('',#299,#300,#169,.T.);
#373=EDGE_CURVE('',#300,#300,#248,.T.);
#374=EDGE_CURVE('',#290,#266,#170,.T.);
#375=EDGE_CURVE('',#278,#301,#171,.T.);
#376=EDGE_CURVE('',#301,#301,#249,.T.);
#377=EDGE_CURVE('',#277,#302,#172,.T.);
#378=EDGE_CURVE('',#302,#302,#250,.T.);
#379=EDGE_CURVE('',#279,#303,#173,.T.);
#380=EDGE_CURVE('',#303,#303,#251,.T.);
#381=EDGE_CURVE('',#276,#304,#174,.T.);
#382=EDGE_CURVE('',#304,#304,#252,.T.);
#383=ORIENTED_EDGE('',*,*,#305,.T.);
#384=ORIENTED_EDGE('',*,*,#306,.T.);
#385=ORIENTED_EDGE('',*,*,#307,.T.);
#386=ORIENTED_EDGE('',*,*,#308,.T.);
#387=ORIENTED_EDGE('',*,*,#309,.T.);
#388=ORIENTED_EDGE('',*,*,#306,.F.);
#389=ORIENTED_EDGE('',*,*,#310,.F.);
#390=ORIENTED_EDGE('',*,*,#311,.F.);
#391=ORIENTED_EDGE('',*,*,#312,.F.);
#392=ORIENTED_EDGE('',*,*,#313,.F.);
#393=ORIENTED_EDGE('',*,*,#314,.F.);
#394=ORIENTED_EDGE('',*,*,#315,.F.);
#395=ORIENTED_EDGE('',*,*,#305,.F.);
#396=ORIENTED_EDGE('',*,*,#316,.T.);
#397=ORIENTED_EDGE('',*,*,#317,.T.);
#398=ORIENTED_EDGE('',*,*,#318,.T.);
#399=ORIENTED_EDGE('',*,*,#319,.T.);
#400=ORIENTED_EDGE('',*,*,#320,.T.);
#401=ORIENTED_EDGE('',*,*,#321,.T.);
#402=ORIENTED_EDGE('',*,*,#322,.T.);
#403=ORIENTED_EDGE('',*,*,#323,.F.);
#404=ORIENTED_EDGE('',*,*,#314,.T.);
#405=ORIENTED_EDGE('',*,*,#324,.F.);
#406=ORIENTED_EDGE('',*,*,#325,.T.);
#407=ORIENTED_EDGE('',*,*,#326,.F.);
#408=ORIENTED_EDGE('',*,*,#327,.T.);
#409=ORIENTED_EDGE('',*,*,#328,.F.);
#410=ORIENTED_EDGE('',*,*,#329,.T.);
#411=ORIENTED_EDGE('',*,*,#330,.F.);
#412=ORIENTED_EDGE('',*,*,#310,.T.);
#413=ORIENTED_EDGE('',*,*,#331,.T.);
#414=ORIENTED_EDGE('',*,*,#332,.T.);
#415=ORIENTED_EDGE('',*,*,#333,.T.);
#416=ORIENTED_EDGE('',*,*,#334,.T.);
#417=ORIENTED_EDGE('',*,*,#323,.T.);
#418=ORIENTED_EDGE('',*,*,#335,.T.);
#419=ORIENTED_EDGE('',*,*,#336,.T.);
#420=ORIENTED_EDGE('',*,*,#315,.T.);
#421=ORIENTED_EDGE('',*,*,#335,.F.);
#422=ORIENTED_EDGE('',*,*,#322,.F.);
#423=ORIENTED_EDGE('',*,*,#337,.F.);
#424=ORIENTED_EDGE('',*,*,#338,.T.);
#425=ORIENTED_EDGE('',*,*,#324,.T.);
#426=ORIENTED_EDGE('',*,*,#313,.T.);
#427=ORIENTED_EDGE('',*,*,#339,.T.);
#428=ORIENTED_EDGE('',*,*,#340,.T.);
#429=ORIENTED_EDGE('',*,*,#340,.F.);
#430=ORIENTED_EDGE('',*,*,#341,.F.);
#431=ORIENTED_EDGE('',*,*,#342,.F.);
#432=ORIENTED_EDGE('',*,*,#325,.F.);
#433=ORIENTED_EDGE('',*,*,#326,.T.);
#434=ORIENTED_EDGE('',*,*,#342,.T.);
#435=ORIENTED_EDGE('',*,*,#343,.T.);
#436=ORIENTED_EDGE('',*,*,#344,.T.);
#437=ORIENTED_EDGE('',*,*,#330,.T.);
#438=ORIENTED_EDGE('',*,*,#345,.T.);
#439=ORIENTED_EDGE('',*,*,#346,.T.);
#440=ORIENTED_EDGE('',*,*,#311,.T.);
#441=ORIENTED_EDGE('',*,*,#345,.F.);
#442=ORIENTED_EDGE('',*,*,#329,.F.);
#443=ORIENTED_EDGE('',*,*,#347,.F.);
#444=ORIENTED_EDGE('',*,*,#348,.F.);
#445=ORIENTED_EDGE('',*,*,#328,.T.);
#446=ORIENTED_EDGE('',*,*,#349,.T.);
#447=ORIENTED_EDGE('',*,*,#350,.T.);
#448=ORIENTED_EDGE('',*,*,#347,.T.);
#449=ORIENTED_EDGE('',*,*,#344,.F.);
#450=ORIENTED_EDGE('',*,*,#351,.F.);
#451=ORIENTED_EDGE('',*,*,#349,.F.);
#452=ORIENTED_EDGE('',*,*,#327,.F.);
#453=ORIENTED_EDGE('',*,*,#308,.F.);
#454=ORIENTED_EDGE('',*,*,#352,.T.);
#455=ORIENTED_EDGE('',*,*,#353,.F.);
#456=ORIENTED_EDGE('',*,*,#316,.F.);
#457=ORIENTED_EDGE('',*,*,#338,.F.);
#458=ORIENTED_EDGE('',*,*,#354,.F.);
#459=ORIENTED_EDGE('',*,*,#352,.F.);
#460=ORIENTED_EDGE('',*,*,#307,.F.);
#461=ORIENTED_EDGE('',*,*,#309,.F.);
#462=ORIENTED_EDGE('',*,*,#336,.F.);
#463=ORIENTED_EDGE('',*,*,#355,.F.);
#464=ORIENTED_EDGE('',*,*,#356,.F.);
#465=ORIENTED_EDGE('',*,*,#357,.F.);
#466=ORIENTED_EDGE('',*,*,#358,.F.);
#467=ORIENTED_EDGE('',*,*,#337,.T.);
#468=ORIENTED_EDGE('',*,*,#321,.F.);
#469=ORIENTED_EDGE('',*,*,#359,.F.);
#470=ORIENTED_EDGE('',*,*,#357,.T.);
#471=ORIENTED_EDGE('',*,*,#360,.T.);
#472=ORIENTED_EDGE('',*,*,#317,.F.);
#473=ORIENTED_EDGE('',*,*,#353,.T.);
#474=ORIENTED_EDGE('',*,*,#354,.T.);
#475=ORIENTED_EDGE('',*,*,#356,.T.);
#476=ORIENTED_EDGE('',*,*,#361,.T.);
#477=ORIENTED_EDGE('',*,*,#318,.F.);
#478=ORIENTED_EDGE('',*,*,#360,.F.);
#479=ORIENTED_EDGE('',*,*,#362,.T.);
#480=ORIENTED_EDGE('',*,*,#363,.T.);
#481=ORIENTED_EDGE('',*,*,#364,.T.);
#482=ORIENTED_EDGE('',*,*,#363,.F.);
#483=ORIENTED_EDGE('',*,*,#365,.T.);
#484=ORIENTED_EDGE('',*,*,#366,.T.);
#485=ORIENTED_EDGE('',*,*,#367,.T.);
#486=ORIENTED_EDGE('',*,*,#366,.F.);
#487=ORIENTED_EDGE('',*,*,#368,.T.);
#488=ORIENTED_EDGE('',*,*,#369,.T.);
#489=ORIENTED_EDGE('',*,*,#370,.T.);
#490=ORIENTED_EDGE('',*,*,#369,.F.);
#491=ORIENTED_EDGE('',*,*,#371,.T.);
#492=ORIENTED_EDGE('',*,*,#372,.T.);
#493=ORIENTED_EDGE('',*,*,#373,.T.);
#494=ORIENTED_EDGE('',*,*,#372,.F.);
#495=ORIENTED_EDGE('',*,*,#358,.T.);
#496=ORIENTED_EDGE('',*,*,#359,.T.);
#497=ORIENTED_EDGE('',*,*,#320,.F.);
#498=ORIENTED_EDGE('',*,*,#374,.F.);
#499=ORIENTED_EDGE('',*,*,#355,.T.);
#500=ORIENTED_EDGE('',*,*,#374,.T.);
#501=ORIENTED_EDGE('',*,*,#319,.F.);
#502=ORIENTED_EDGE('',*,*,#361,.F.);
#503=ORIENTED_EDGE('',*,*,#339,.F.);
#504=ORIENTED_EDGE('',*,*,#312,.T.);
#505=ORIENTED_EDGE('',*,*,#346,.F.);
#506=ORIENTED_EDGE('',*,*,#348,.T.);
#507=ORIENTED_EDGE('',*,*,#350,.F.);
#508=ORIENTED_EDGE('',*,*,#351,.T.);
#509=ORIENTED_EDGE('',*,*,#343,.F.);
#510=ORIENTED_EDGE('',*,*,#341,.T.);
#511=ORIENTED_EDGE('',*,*,#373,.F.);
#512=ORIENTED_EDGE('',*,*,#370,.F.);
#513=ORIENTED_EDGE('',*,*,#367,.F.);
#514=ORIENTED_EDGE('',*,*,#364,.F.);
#515=ORIENTED_EDGE('',*,*,#333,.F.);
#516=ORIENTED_EDGE('',*,*,#375,.T.);
#517=ORIENTED_EDGE('',*,*,#376,.T.);
#518=ORIENTED_EDGE('',*,*,#375,.F.);
#519=ORIENTED_EDGE('',*,*,#371,.F.);
#520=ORIENTED_EDGE('',*,*,#376,.F.);
#521=ORIENTED_EDGE('',*,*,#332,.F.);
#522=ORIENTED_EDGE('',*,*,#377,.T.);
#523=ORIENTED_EDGE('',*,*,#378,.T.);
#524=ORIENTED_EDGE('',*,*,#377,.F.);
#525=ORIENTED_EDGE('',*,*,#368,.F.);
#526=ORIENTED_EDGE('',*,*,#378,.F.);
#527=ORIENTED_EDGE('',*,*,#334,.F.);
#528=ORIENTED_EDGE('',*,*,#379,.T.);
#529=ORIENTED_EDGE('',*,*,#380,.T.);
#530=ORIENTED_EDGE('',*,*,#379,.F.);
#531=ORIENTED_EDGE('',*,*,#365,.F.);
#532=ORIENTED_EDGE('',*,*,#380,.F.);
#533=ORIENTED_EDGE('',*,*,#331,.F.);
#534=ORIENTED_EDGE('',*,*,#381,.T.);
#535=ORIENTED_EDGE('',*,*,#382,.T.);
#536=ORIENTED_EDGE('',*,*,#381,.F.);
#537=ORIENTED_EDGE('',*,*,#362,.F.);
#538=ORIENTED_EDGE('',*,*,#382,.F.);
#539=CYLINDRICAL_SURFACE('',#600,2.);
#540=CYLINDRICAL_SURFACE('',#614,2.);
#541=CYLINDRICAL_SURFACE('',#617,5.);
#542=CYLINDRICAL_SURFACE('',#620,5.);
#543=CYLINDRICAL_SURFACE('',#622,5.);
#544=CYLINDRICAL_SURFACE('',#625,5.);
#545=CYLINDRICAL_SURFACE('',#633,2.99999999999999);
#546=CYLINDRICAL_SURFACE('',#636,3.);
#547=CYLINDRICAL_SURFACE('',#639,3.);
#548=CYLINDRICAL_SURFACE('',#642,3.00000000000001);
#549=CYLINDRICAL_SURFACE('',#648,1.7);
#550=CYLINDRICAL_SURFACE('',#651,1.7);
#551=CYLINDRICAL_SURFACE('',#654,1.7);
#552=CYLINDRICAL_SURFACE('',#657,1.7);
#553=ADVANCED_FACE('',(#49),#539,.T.);
#554=ADVANCED_FACE('',(#50),#31,.T.);
#555=ADVANCED_FACE('',(#51,#19,#20,#21,#22),#32,.T.);
#556=ADVANCED_FACE('',(#52),#540,.T.);
#557=ADVANCED_FACE('',(#53),#33,.F.);
#558=ADVANCED_FACE('',(#54),#541,.T.);
#559=ADVANCED_FACE('',(#55),#34,.T.);
#560=ADVANCED_FACE('',(#56),#542,.T.);
#561=ADVANCED_FACE('',(#57),#543,.T.);
#562=ADVANCED_FACE('',(#58),#35,.T.);
#563=ADVANCED_FACE('',(#59),#544,.T.);
#564=ADVANCED_FACE('',(#60),#36,.T.);
#565=ADVANCED_FACE('',(#61),#37,.F.);
#566=ADVANCED_FACE('',(#62),#38,.F.);
#567=ADVANCED_FACE('',(#63),#39,.T.);
#568=ADVANCED_FACE('',(#64),#40,.T.);
#569=ADVANCED_FACE('',(#65),#41,.T.);
#570=ADVANCED_FACE('',(#66),#545,.F.);
#571=ADVANCED_FACE('',(#67),#546,.F.);
#572=ADVANCED_FACE('',(#68),#547,.F.);
#573=ADVANCED_FACE('',(#69),#548,.F.);
#574=ADVANCED_FACE('',(#70),#42,.T.);
#575=ADVANCED_FACE('',(#71),#43,.T.);
#576=ADVANCED_FACE('',(#72,#23,#24,#25,#26),#44,.F.);
#577=ADVANCED_FACE('',(#73),#549,.F.);
#578=ADVANCED_FACE('',(#74,#27),#45,.F.);
#579=ADVANCED_FACE('',(#75),#550,.F.);
#580=ADVANCED_FACE('',(#76,#28),#46,.F.);
#581=ADVANCED_FACE('',(#77),#551,.F.);
#582=ADVANCED_FACE('',(#78,#29),#47,.F.);
#583=ADVANCED_FACE('',(#79),#552,.F.);
#584=ADVANCED_FACE('',(#80,#30),#48,.F.);
#585=CLOSED_SHELL('',(#553,#554,#555,#556,#557,#558,#559,#560,#561,#562,
#563,#564,#565,#566,#567,#568,#569,#570,#571,#572,#573,#574,#575,#576,#577,
#578,#579,#580,#581,#582,#583,#584));
#586=DERIVED_UNIT_ELEMENT(#588,1.);
#587=DERIVED_UNIT_ELEMENT(#1009,-3.);
#588=(
MASS_UNIT()
NAMED_UNIT(*)
SI_UNIT(.KILO.,.GRAM.)
);
#589=DERIVED_UNIT((#586,#587));
#590=MEASURE_REPRESENTATION_ITEM('density measure',
POSITIVE_RATIO_MEASURE(7850.),#589);
#591=PROPERTY_DEFINITION_REPRESENTATION(#596,#593);
#592=PROPERTY_DEFINITION_REPRESENTATION(#597,#594);
#593=REPRESENTATION('material name',(#595),#1006);
#594=REPRESENTATION('density',(#590),#1006);
#595=DESCRIPTIVE_REPRESENTATION_ITEM('Steel','Steel');
#596=PROPERTY_DEFINITION('material property','material name',#1021);
#597=PROPERTY_DEFINITION('material property','density of part',#1021);
#598=AXIS2_PLACEMENT_3D('',#837,#661,#662);
#599=AXIS2_PLACEMENT_3D('',#838,#663,#664);
#600=AXIS2_PLACEMENT_3D('',#839,#665,#666);
#601=AXIS2_PLACEMENT_3D('',#842,#667,#668);
#602=AXIS2_PLACEMENT_3D('',#846,#670,#671);
#603=AXIS2_PLACEMENT_3D('',#848,#673,#674);
#604=AXIS2_PLACEMENT_3D('',#862,#682,#683);
#605=AXIS2_PLACEMENT_3D('',#877,#691,#692);
#606=AXIS2_PLACEMENT_3D('',#879,#693,#694);
#607=AXIS2_PLACEMENT_3D('',#883,#696,#697);
#608=AXIS2_PLACEMENT_3D('',#887,#699,#700);
#609=AXIS2_PLACEMENT_3D('',#890,#702,#703);
#610=AXIS2_PLACEMENT_3D('',#892,#704,#705);
#611=AXIS2_PLACEMENT_3D('',#894,#706,#707);
#612=AXIS2_PLACEMENT_3D('',#896,#708,#709);
#613=AXIS2_PLACEMENT_3D('',#898,#710,#711);
#614=AXIS2_PLACEMENT_3D('',#899,#712,#713);
#615=AXIS2_PLACEMENT_3D('',#902,#715,#716);
#616=AXIS2_PLACEMENT_3D('',#903,#717,#718);
#617=AXIS2_PLACEMENT_3D('',#907,#721,#722);
#618=AXIS2_PLACEMENT_3D('',#909,#723,#724);
#619=AXIS2_PLACEMENT_3D('',#911,#726,#727);
#620=AXIS2_PLACEMENT_3D('',#915,#730,#731);
#621=AXIS2_PLACEMENT_3D('',#917,#732,#733);
#622=AXIS2_PLACEMENT_3D('',#919,#735,#736);
#623=AXIS2_PLACEMENT_3D('',#922,#738,#739);
#624=AXIS2_PLACEMENT_3D('',#923,#740,#741);
#625=AXIS2_PLACEMENT_3D('',#927,#744,#745);
#626=AXIS2_PLACEMENT_3D('',#930,#747,#748);
#627=AXIS2_PLACEMENT_3D('',#931,#749,#750);
#628=AXIS2_PLACEMENT_3D('',#933,#752,#753);
#629=AXIS2_PLACEMENT_3D('',#937,#756,#757);
#630=AXIS2_PLACEMENT_3D('',#939,#759,#760);
#631=AXIS2_PLACEMENT_3D('',#948,#765,#766);
#632=AXIS2_PLACEMENT_3D('',#951,#769,#770);
#633=AXIS2_PLACEMENT_3D('',#953,#772,#773);
#634=AXIS2_PLACEMENT_3D('',#955,#774,#775);
#635=AXIS2_PLACEMENT_3D('',#958,#777,#778);
#636=AXIS2_PLACEMENT_3D('',#959,#779,#780);
#637=AXIS2_PLACEMENT_3D('',#961,#781,#782);
#638=AXIS2_PLACEMENT_3D('',#964,#784,#785);
#639=AXIS2_PLACEMENT_3D('',#965,#786,#787);
#640=AXIS2_PLACEMENT_3D('',#967,#788,#789);
#641=AXIS2_PLACEMENT_3D('',#970,#791,#792);
#642=AXIS2_PLACEMENT_3D('',#971,#793,#794);
#643=AXIS2_PLACEMENT_3D('',#973,#795,#796);
#644=AXIS2_PLACEMENT_3D('',#976,#798,#799);
#645=AXIS2_PLACEMENT_3D('',#977,#800,#801);
#646=AXIS2_PLACEMENT_3D('',#979,#803,#804);
#647=AXIS2_PLACEMENT_3D('',#980,#805,#806);
#648=AXIS2_PLACEMENT_3D('',#981,#807,#808);
#649=AXIS2_PLACEMENT_3D('',#984,#810,#811);
#650=AXIS2_PLACEMENT_3D('',#985,#812,#813);
#651=AXIS2_PLACEMENT_3D('',#986,#814,#815);
#652=AXIS2_PLACEMENT_3D('',#989,#817,#818);
#653=AXIS2_PLACEMENT_3D('',#990,#819,#820);
#654=AXIS2_PLACEMENT_3D('',#991,#821,#822);
#655=AXIS2_PLACEMENT_3D('',#994,#824,#825);
#656=AXIS2_PLACEMENT_3D('',#995,#826,#827);
#657=AXIS2_PLACEMENT_3D('',#996,#828,#829);
#658=AXIS2_PLACEMENT_3D('',#999,#831,#832);
#659=AXIS2_PLACEMENT_3D('',#1000,#833,#834);
#660=AXIS2_PLACEMENT_3D('',#1001,#835,#836);
#661=DIRECTION('axis',(0.,0.,1.));
#662=DIRECTION('refdir',(1.,0.,0.));
#663=DIRECTION('axis',(0.,0.,1.));
#664=DIRECTION('refdir',(1.,0.,0.));
#665=DIRECTION('center_axis',(0.,0.,1.));
#666=DIRECTION('ref_axis',(-0.707106781186548,0.707106781186548,0.));
#667=DIRECTION('center_axis',(0.,0.,-1.));
#668=DIRECTION('ref_axis',(-0.707106781186548,0.707106781186548,0.));
#669=DIRECTION('',(0.,0.,-1.));
#670=DIRECTION('center_axis',(0.,0.,-1.));
#671=DIRECTION('ref_axis',(-0.707106781186548,0.707106781186548,0.));
#672=DIRECTION('',(0.,0.,1.));
#673=DIRECTION('center_axis',(0.,1.,0.));
#674=DIRECTION('ref_axis',(-1.,0.,0.));
#675=DIRECTION('',(1.,0.,0.));
#676=DIRECTION('',(-1.,0.,0.));
#677=DIRECTION('',(0.,0.,1.));
#678=DIRECTION('',(1.,0.,0.));
#679=DIRECTION('',(0.,0.,-1.));
#680=DIRECTION('',(-1.,0.,0.));
#681=DIRECTION('',(0.,0.,1.));
#682=DIRECTION('center_axis',(0.,0.,1.));
#683=DIRECTION('ref_axis',(1.,0.,0.));
#684=DIRECTION('',(0.,-1.,0.));
#685=DIRECTION('',(1.,0.,0.));
#686=DIRECTION('',(0.,-1.,0.));
#687=DIRECTION('',(-1.,0.,0.));
#688=DIRECTION('',(0.,1.,0.));
#689=DIRECTION('',(1.,0.,0.));
#690=DIRECTION('',(0.,1.,0.));
#691=DIRECTION('center_axis',(0.,0.,-1.));
#692=DIRECTION('ref_axis',(0.707106781186548,0.707106781186548,0.));
#693=DIRECTION('center_axis',(0.,0.,-1.));
#694=DIRECTION('ref_axis',(-0.707106781186547,0.707106781186547,0.));
#695=DIRECTION('',(0.,-1.,0.));
#696=DIRECTION('center_axis',(0.,0.,-1.));
#697=DIRECTION('ref_axis',(-0.707106781186547,-0.707106781186547,0.));
#698=DIRECTION('',(1.,0.,0.));
#699=DIRECTION('center_axis',(0.,0.,-1.));
#700=DIRECTION('ref_axis',(0.707106781186547,-0.707106781186547,0.));
#701=DIRECTION('',(0.,1.,0.));
#702=DIRECTION('center_axis',(0.,0.,-1.));
#703=DIRECTION('ref_axis',(0.707106781186547,0.707106781186547,0.));
#704=DIRECTION('center_axis',(0.,0.,-1.));
#705=DIRECTION('ref_axis',(1.,0.,0.));
#706=DIRECTION('center_axis',(0.,0.,-1.));
#707=DIRECTION('ref_axis',(1.,0.,0.));
#708=DIRECTION('center_axis',(0.,0.,-1.));
#709=DIRECTION('ref_axis',(1.,0.,0.));
#710=DIRECTION('center_axis',(0.,0.,-1.));
#711=DIRECTION('ref_axis',(1.,0.,0.));
#712=DIRECTION('center_axis',(0.,0.,-1.));
#713=DIRECTION('ref_axis',(0.707106781186548,0.707106781186548,0.));
#714=DIRECTION('',(0.,0.,-1.));
#715=DIRECTION('center_axis',(0.,0.,-1.));
#716=DIRECTION('ref_axis',(0.707106781186548,0.707106781186548,0.));
#717=DIRECTION('center_axis',(-1.,0.,0.));
#718=DIRECTION('ref_axis',(0.,1.,0.));
#719=DIRECTION('',(0.,0.,1.));
#720=DIRECTION('',(0.,1.,0.));
#721=DIRECTION('center_axis',(0.,0.,1.));
#722=DIRECTION('ref_axis',(-0.707106781186547,0.707106781186547,0.));
#723=DIRECTION('center_axis',(0.,0.,1.));
#724=DIRECTION('ref_axis',(-0.707106781186547,0.707106781186547,0.));
#725=DIRECTION('',(0.,0.,1.));
#726=DIRECTION('center_axis',(-1.,0.,0.));
#727=DIRECTION('ref_axis',(0.,-1.,0.));
#728=DIRECTION('',(0.,1.,0.));
#729=DIRECTION('',(0.,0.,-1.));
#730=DIRECTION('center_axis',(0.,0.,1.));
#731=DIRECTION('ref_axis',(-0.707106781186547,-0.707106781186547,0.));
#732=DIRECTION('center_axis',(0.,0.,1.));
#733=DIRECTION('ref_axis',(-0.707106781186547,-0.707106781186547,0.));
#734=DIRECTION('',(0.,0.,1.));
#735=DIRECTION('center_axis',(0.,0.,1.));
#736=DIRECTION('ref_axis',(0.707106781186547,0.707106781186547,0.));
#737=DIRECTION('',(0.,0.,-1.));
#738=DIRECTION('center_axis',(0.,0.,1.));
#739=DIRECTION('ref_axis',(0.707106781186547,0.707106781186547,0.));
#740=DIRECTION('center_axis',(1.,0.,0.));
#741=DIRECTION('ref_axis',(0.,1.,0.));
#742=DIRECTION('',(0.,0.,1.));
#743=DIRECTION('',(0.,-1.,0.));
#744=DIRECTION('center_axis',(0.,0.,1.));
#745=DIRECTION('ref_axis',(0.707106781186547,-0.707106781186547,0.));
#746=DIRECTION('',(0.,0.,-1.));
#747=DIRECTION('center_axis',(0.,0.,1.));
#748=DIRECTION('ref_axis',(0.707106781186547,-0.707106781186547,0.));
#749=DIRECTION('center_axis',(0.,-1.,0.));
#750=DIRECTION('ref_axis',(1.,0.,0.));
#751=DIRECTION('',(-1.,0.,0.));
#752=DIRECTION('center_axis',(1.,0.,0.));
#753=DIRECTION('ref_axis',(0.,-1.,0.));
#754=DIRECTION('',(0.,-1.,0.));
#755=DIRECTION('',(0.,0.,-1.));
#756=DIRECTION('center_axis',(0.,0.,-1.));
#757=DIRECTION('ref_axis',(-1.,0.,0.));
#758=DIRECTION('',(-1.,0.,0.));
#759=DIRECTION('center_axis',(0.,0.,1.));
#760=DIRECTION('ref_axis',(1.,0.,0.));
#761=DIRECTION('',(-1.,0.,0.));
#762=DIRECTION('',(0.,-1.,0.));
#763=DIRECTION('',(1.,0.,0.));
#764=DIRECTION('',(0.,1.,0.));
#765=DIRECTION('center_axis',(0.,-1.,0.));
#766=DIRECTION('ref_axis',(1.,0.,0.));
#767=DIRECTION('',(0.,0.,1.));
#768=DIRECTION('',(0.,0.,1.));
#769=DIRECTION('center_axis',(-1.,0.,0.));
#770=DIRECTION('ref_axis',(0.,-1.,0.));
#771=DIRECTION('',(0.,0.,1.));
#772=DIRECTION('center_axis',(0.,0.,1.));
#773=DIRECTION('ref_axis',(1.,0.,0.));
#774=DIRECTION('center_axis',(0.,0.,1.));
#775=DIRECTION('ref_axis',(1.,0.,0.));
#776=DIRECTION('',(0.,0.,-1.));
#777=DIRECTION('center_axis',(0.,0.,-1.));
#778=DIRECTION('ref_axis',(1.,0.,0.));
#779=DIRECTION('center_axis',(0.,0.,1.));
#780=DIRECTION('ref_axis',(1.,0.,0.));
#781=DIRECTION('center_axis',(0.,0.,1.));
#782=DIRECTION('ref_axis',(1.,0.,0.));
#783=DIRECTION('',(0.,0.,-1.));
#784=DIRECTION('center_axis',(0.,0.,-1.));
#785=DIRECTION('ref_axis',(1.,0.,0.));
#786=DIRECTION('center_axis',(0.,0.,1.));
#787=DIRECTION('ref_axis',(1.,0.,0.));
#788=DIRECTION('center_axis',(0.,0.,1.));
#789=DIRECTION('ref_axis',(1.,0.,0.));
#790=DIRECTION('',(0.,0.,-1.));
#791=DIRECTION('center_axis',(0.,0.,-1.));
#792=DIRECTION('ref_axis',(1.,0.,0.));
#793=DIRECTION('center_axis',(0.,0.,1.));
#794=DIRECTION('ref_axis',(1.,0.,0.));
#795=DIRECTION('center_axis',(0.,0.,1.));
#796=DIRECTION('ref_axis',(1.,0.,0.));
#797=DIRECTION('',(0.,0.,-1.));
#798=DIRECTION('center_axis',(0.,0.,-1.));
#799=DIRECTION('ref_axis',(1.,0.,0.));
#800=DIRECTION('center_axis',(1.,0.,0.));
#801=DIRECTION('ref_axis',(0.,1.,0.));
#802=DIRECTION('',(0.,0.,1.));
#803=DIRECTION('center_axis',(0.,1.,0.));
#804=DIRECTION('ref_axis',(-1.,0.,0.));
#805=DIRECTION('center_axis',(0.,0.,1.));
#806=DIRECTION('ref_axis',(1.,0.,0.));
#807=DIRECTION('center_axis',(0.,0.,1.));
#808=DIRECTION('ref_axis',(1.,0.,0.));
#809=DIRECTION('',(0.,0.,-1.));
#810=DIRECTION('center_axis',(0.,0.,-1.));
#811=DIRECTION('ref_axis',(1.,0.,0.));
#812=DIRECTION('center_axis',(0.,0.,1.));
#813=DIRECTION('ref_axis',(1.,0.,0.));
#814=DIRECTION('center_axis',(0.,0.,1.));
#815=DIRECTION('ref_axis',(1.,0.,0.));
#816=DIRECTION('',(0.,0.,-1.));
#817=DIRECTION('center_axis',(0.,0.,-1.));
#818=DIRECTION('ref_axis',(1.,0.,0.));
#819=DIRECTION('center_axis',(0.,0.,1.));
#820=DIRECTION('ref_axis',(1.,0.,0.));
#821=DIRECTION('center_axis',(0.,0.,1.));
#822=DIRECTION('ref_axis',(1.,0.,0.));
#823=DIRECTION('',(0.,0.,-1.));
#824=DIRECTION('center_axis',(0.,0.,-1.));
#825=DIRECTION('ref_axis',(1.,0.,0.));
#826=DIRECTION('center_axis',(0.,0.,1.));
#827=DIRECTION('ref_axis',(1.,0.,0.));
#828=DIRECTION('center_axis',(0.,0.,1.));
#829=DIRECTION('ref_axis',(1.,0.,0.));
#830=DIRECTION('',(0.,0.,-1.));
#831=DIRECTION('center_axis',(0.,0.,-1.));
#832=DIRECTION('ref_axis',(1.,0.,0.));
#833=DIRECTION('center_axis',(0.,0.,1.));
#834=DIRECTION('ref_axis',(1.,0.,0.));
#835=DIRECTION('',(0.,0.,1.));
#836=DIRECTION('',(1.,0.,0.));
#837=CARTESIAN_POINT('',(0.,0.,0.));
#838=CARTESIAN_POINT('',(0.,0.,0.));
#839=CARTESIAN_POINT('Origin',(121.9,82.5,6.5));
#840=CARTESIAN_POINT('',(119.9,82.5,13.));
#841=CARTESIAN_POINT('',(121.9,84.5,13.));
#842=CARTESIAN_POINT('Origin',(121.9,82.5,13.));
#843=CARTESIAN_POINT('',(121.9,84.5,5.5));
#844=CARTESIAN_POINT('',(121.9,84.5,6.5));
#845=CARTESIAN_POINT('',(119.9,82.5,5.5));
#846=CARTESIAN_POINT('Origin',(121.9,82.5,5.5));
#847=CARTESIAN_POINT('',(119.9,82.5,6.5));
#848=CARTESIAN_POINT('Origin',(135.5,84.5,0.));
#849=CARTESIAN_POINT('',(99.4,84.5,5.5));
#850=CARTESIAN_POINT('',(123.075,84.5,5.5));
#851=CARTESIAN_POINT('',(130.5,84.5,13.));
#852=CARTESIAN_POINT('',(25.5,84.5,13.));
#853=CARTESIAN_POINT('',(130.5,84.5,0.));
#854=CARTESIAN_POINT('',(130.5,84.5,0.));
#855=CARTESIAN_POINT('',(30.5,84.5,0.));
#856=CARTESIAN_POINT('',(25.5,84.5,0.));
#857=CARTESIAN_POINT('',(30.5,84.5,13.));
#858=CARTESIAN_POINT('',(30.5,84.5,0.));
#859=CARTESIAN_POINT('',(99.4,84.5,13.));
#860=CARTESIAN_POINT('',(25.5,84.5,13.));
#861=CARTESIAN_POINT('',(99.4,84.5,6.5));
#862=CARTESIAN_POINT('Origin',(130.5,-2.50000000000002,13.));
#863=CARTESIAN_POINT('',(119.9,75.0000011175871,13.));
#864=CARTESIAN_POINT('',(119.9,41.0000006295741,13.));
#865=CARTESIAN_POINT('',(126.,75.,13.));
#866=CARTESIAN_POINT('',(35.,75.,13.));
#867=CARTESIAN_POINT('',(126.,1.99999999999999,13.));
#868=CARTESIAN_POINT('',(126.,75.,13.));
#869=CARTESIAN_POINT('',(35.,1.99999999999999,13.));
#870=CARTESIAN_POINT('',(126.,1.99999999999999,13.));
#871=CARTESIAN_POINT('',(35.,75.,13.));
#872=CARTESIAN_POINT('',(35.,1.99999999999999,13.));
#873=CARTESIAN_POINT('',(101.4,75.0000011175871,13.));
#874=CARTESIAN_POINT('',(35.,75.,13.));
#875=CARTESIAN_POINT('',(101.4,82.5,13.));
#876=CARTESIAN_POINT('',(101.4,36.2500005587935,13.));
#877=CARTESIAN_POINT('Origin',(99.4,82.5,13.));
#878=CARTESIAN_POINT('',(25.5,79.5,13.));
#879=CARTESIAN_POINT('Origin',(30.5,79.5,13.));
#880=CARTESIAN_POINT('',(25.5,-2.50000000000002,13.));
#881=CARTESIAN_POINT('',(25.5,-7.50000000000002,13.));
#882=CARTESIAN_POINT('',(30.5,-7.50000000000002,13.));
#883=CARTESIAN_POINT('Origin',(30.5,-2.50000000000002,13.));
#884=CARTESIAN_POINT('',(130.5,-7.50000000000002,13.));
#885=CARTESIAN_POINT('',(135.5,-7.50000000000002,13.));
#886=CARTESIAN_POINT('',(135.5,-2.50000000000002,13.));
#887=CARTESIAN_POINT('Origin',(130.5,-2.50000000000002,13.));
#888=CARTESIAN_POINT('',(135.5,79.5,13.));
#889=CARTESIAN_POINT('',(135.5,84.5,13.));
#890=CARTESIAN_POINT('Origin',(130.5,79.5,13.));
#891=CARTESIAN_POINT('',(128.8,-2.50000000000002,13.));
#892=CARTESIAN_POINT('Origin',(130.5,-2.50000000000002,13.));
#893=CARTESIAN_POINT('',(28.8,79.5,13.));
#894=CARTESIAN_POINT('Origin',(30.5,79.5,13.));
#895=CARTESIAN_POINT('',(128.8,79.5,13.));
#896=CARTESIAN_POINT('Origin',(130.5,79.5,13.));
#897=CARTESIAN_POINT('',(28.8,-2.50000000000002,13.));
#898=CARTESIAN_POINT('Origin',(30.5,-2.50000000000002,13.));
#899=CARTESIAN_POINT('Origin',(99.4,82.5,6.5));
#900=CARTESIAN_POINT('',(101.4,82.5,5.5));
#901=CARTESIAN_POINT('',(101.4,82.5,6.5));
#902=CARTESIAN_POINT('Origin',(99.4,82.5,5.5));
#903=CARTESIAN_POINT('Origin',(101.4,75.0000011175871,13.));
#904=CARTESIAN_POINT('',(101.4,75.0000011175871,5.5));
#905=CARTESIAN_POINT('',(101.4,75.,6.5));
#906=CARTESIAN_POINT('',(101.4,84.5000012591481,5.5));
#907=CARTESIAN_POINT('Origin',(30.5,79.5,0.));
#908=CARTESIAN_POINT('',(25.5,79.5,0.));
#909=CARTESIAN_POINT('Origin',(30.5,79.5,0.));
#910=CARTESIAN_POINT('',(25.5,79.5,0.));
#911=CARTESIAN_POINT('Origin',(25.5,84.5,0.));
#912=CARTESIAN_POINT('',(25.5,-2.50000000000002,0.));
#913=CARTESIAN_POINT('',(25.5,-7.50000000000002,0.));
#914=CARTESIAN_POINT('',(25.5,-2.50000000000002,0.));
#915=CARTESIAN_POINT('Origin',(30.5,-2.50000000000002,0.));
#916=CARTESIAN_POINT('',(30.5,-7.50000000000002,0.));
#917=CARTESIAN_POINT('Origin',(30.5,-2.50000000000002,0.));
#918=CARTESIAN_POINT('',(30.5,-7.50000000000002,0.));
#919=CARTESIAN_POINT('Origin',(130.5,79.5,0.));
#920=CARTESIAN_POINT('',(135.5,79.5,0.));
#921=CARTESIAN_POINT('',(135.5,79.5,0.));
#922=CARTESIAN_POINT('Origin',(130.5,79.5,0.));
#923=CARTESIAN_POINT('Origin',(135.5,-7.50000000000002,0.));
#924=CARTESIAN_POINT('',(135.5,-2.50000000000002,0.));
#925=CARTESIAN_POINT('',(135.5,-2.50000000000002,0.));
#926=CARTESIAN_POINT('',(135.5,84.5,0.));
#927=CARTESIAN_POINT('Origin',(130.5,-2.50000000000002,0.));
#928=CARTESIAN_POINT('',(130.5,-7.50000000000002,0.));
#929=CARTESIAN_POINT('',(130.5,-7.50000000000002,0.));
#930=CARTESIAN_POINT('Origin',(130.5,-2.50000000000002,0.));
#931=CARTESIAN_POINT('Origin',(25.5,-7.50000000000002,0.));
#932=CARTESIAN_POINT('',(135.5,-7.50000000000002,0.));
#933=CARTESIAN_POINT('Origin',(119.9,84.5000012591481,13.));
#934=CARTESIAN_POINT('',(119.9,75.0000011175871,5.5));
#935=CARTESIAN_POINT('',(119.9,75.0000011175871,5.5));
#936=CARTESIAN_POINT('',(119.9,75.,6.5));
#937=CARTESIAN_POINT('Origin',(110.65,79.7500011883676,5.5));
#938=CARTESIAN_POINT('',(72.825,75.,5.5));
#939=CARTESIAN_POINT('Origin',(80.5,38.5,3.));
#940=CARTESIAN_POINT('',(126.,1.99999999999999,3.));
#941=CARTESIAN_POINT('',(35.,1.99999999999999,3.));
#942=CARTESIAN_POINT('',(103.25,1.99999999999999,3.));
#943=CARTESIAN_POINT('',(126.,75.,3.));
#944=CARTESIAN_POINT('',(126.,56.75,3.));
#945=CARTESIAN_POINT('',(35.,75.,3.));
#946=CARTESIAN_POINT('',(57.75,75.,3.));
#947=CARTESIAN_POINT('',(35.,20.25,3.));
#948=CARTESIAN_POINT('Origin',(35.,75.,0.));
#949=CARTESIAN_POINT('',(35.,75.,0.));
#950=CARTESIAN_POINT('',(126.,75.,0.));
#951=CARTESIAN_POINT('Origin',(126.,75.,0.));
#952=CARTESIAN_POINT('',(126.,1.99999999999999,0.));
#953=CARTESIAN_POINT('Origin',(130.5,-2.50000000000002,0.));
#954=CARTESIAN_POINT('',(127.5,-2.50000000000002,3.1));
#955=CARTESIAN_POINT('Origin',(130.5,-2.50000000000002,3.1));
#956=CARTESIAN_POINT('',(127.5,-2.50000000000002,0.));
#957=CARTESIAN_POINT('',(127.5,-2.50000000000002,0.));
#958=CARTESIAN_POINT('Origin',(130.5,-2.50000000000002,0.));
#959=CARTESIAN_POINT('Origin',(30.5,-2.50000000000002,0.));
#960=CARTESIAN_POINT('',(27.5,-2.50000000000002,3.1));
#961=CARTESIAN_POINT('Origin',(30.5,-2.50000000000002,3.1));
#962=CARTESIAN_POINT('',(27.5,-2.50000000000002,0.));
#963=CARTESIAN_POINT('',(27.5,-2.50000000000002,0.));
#964=CARTESIAN_POINT('Origin',(30.5,-2.50000000000002,0.));
#965=CARTESIAN_POINT('Origin',(30.5,79.5,0.));
#966=CARTESIAN_POINT('',(27.5,79.5,3.1));
#967=CARTESIAN_POINT('Origin',(30.5,79.5,3.1));
#968=CARTESIAN_POINT('',(27.5,79.5,0.));
#969=CARTESIAN_POINT('',(27.5,79.5,0.));
#970=CARTESIAN_POINT('Origin',(30.5,79.5,0.));
#971=CARTESIAN_POINT('Origin',(130.5,79.5,0.));
#972=CARTESIAN_POINT('',(127.5,79.5,3.1));
#973=CARTESIAN_POINT('Origin',(130.5,79.5,3.1));
#974=CARTESIAN_POINT('',(127.5,79.5,0.));
#975=CARTESIAN_POINT('',(127.5,79.5,0.));
#976=CARTESIAN_POINT('Origin',(130.5,79.5,0.));
#977=CARTESIAN_POINT('Origin',(35.,1.99999999999999,0.));
#978=CARTESIAN_POINT('',(35.,1.99999999999999,0.));
#979=CARTESIAN_POINT('Origin',(126.,1.99999999999999,0.));
#980=CARTESIAN_POINT('Origin',(80.5,38.5,0.));
#981=CARTESIAN_POINT('Origin',(130.5,79.5,3.1));
#982=CARTESIAN_POINT('',(128.8,79.5,3.1));
#983=CARTESIAN_POINT('',(128.8,79.5,3.1));
#984=CARTESIAN_POINT('Origin',(130.5,79.5,3.1));
#985=CARTESIAN_POINT('Origin',(130.5,79.5,3.1));
#986=CARTESIAN_POINT('Origin',(30.5,79.5,3.1));
#987=CARTESIAN_POINT('',(28.8,79.5,3.1));
#988=CARTESIAN_POINT('',(28.8,79.5,3.1));
#989=CARTESIAN_POINT('Origin',(30.5,79.5,3.1));
#990=CARTESIAN_POINT('Origin',(30.5,79.5,3.1));
#991=CARTESIAN_POINT('Origin',(30.5,-2.50000000000002,3.1));
#992=CARTESIAN_POINT('',(28.8,-2.50000000000002,3.1));
#993=CARTESIAN_POINT('',(28.8,-2.50000000000002,3.1));
#994=CARTESIAN_POINT('Origin',(30.5,-2.50000000000002,3.1));
#995=CARTESIAN_POINT('Origin',(30.5,-2.50000000000002,3.1));
#996=CARTESIAN_POINT('Origin',(130.5,-2.50000000000002,3.1));
#997=CARTESIAN_POINT('',(128.8,-2.50000000000002,3.1));
#998=CARTESIAN_POINT('',(128.8,-2.50000000000002,3.1));
#999=CARTESIAN_POINT('Origin',(130.5,-2.50000000000002,3.1));
#1000=CARTESIAN_POINT('Origin',(130.5,-2.50000000000002,3.1));
#1001=CARTESIAN_POINT('',(0.,0.,0.));
#1002=UNCERTAINTY_MEASURE_WITH_UNIT(LENGTH_MEASURE(0.01),#1008,
'DISTANCE_ACCURACY_VALUE',
'Maximum model space distance between geometric entities at asserted c
onnectivities');
#1003=UNCERTAINTY_MEASURE_WITH_UNIT(LENGTH_MEASURE(0.01),#1008,
'DISTANCE_ACCURACY_VALUE',
'Maximum model space distance between geometric entities at asserted c
onnectivities');
#1004=UNCERTAINTY_MEASURE_WITH_UNIT(LENGTH_MEASURE(0.01),#1008,
'DISTANCE_ACCURACY_VALUE',
'Maximum model space distance between geometric entities at asserted c
onnectivities');
#1005=(
GEOMETRIC_REPRESENTATION_CONTEXT(3)
GLOBAL_UNCERTAINTY_ASSIGNED_CONTEXT((#1002))
GLOBAL_UNIT_ASSIGNED_CONTEXT((#1008,#1010,#1011))
REPRESENTATION_CONTEXT('','3D')
);
#1006=(
GEOMETRIC_REPRESENTATION_CONTEXT(3)
GLOBAL_UNCERTAINTY_ASSIGNED_CONTEXT((#1003))
GLOBAL_UNIT_ASSIGNED_CONTEXT((#1008,#1010,#1011))
REPRESENTATION_CONTEXT('','3D')
);
#1007=(
GEOMETRIC_REPRESENTATION_CONTEXT(3)
GLOBAL_UNCERTAINTY_ASSIGNED_CONTEXT((#1004))
GLOBAL_UNIT_ASSIGNED_CONTEXT((#1008,#1010,#1011))
REPRESENTATION_CONTEXT('','3D')
);
#1008=(
LENGTH_UNIT()
NAMED_UNIT(*)
SI_UNIT(.MILLI.,.METRE.)
);
#1009=(
LENGTH_UNIT()
NAMED_UNIT(*)
SI_UNIT($,.METRE.)
);
#1010=(
NAMED_UNIT(*)
PLANE_ANGLE_UNIT()
SI_UNIT($,.RADIAN.)
);
#1011=(
NAMED_UNIT(*)
SI_UNIT($,.STERADIAN.)
SOLID_ANGLE_UNIT()
);
#1012=SHAPE_DEFINITION_REPRESENTATION(#1014,#1017);
#1013=SHAPE_DEFINITION_REPRESENTATION(#1015,#1018);
#1014=PRODUCT_DEFINITION_SHAPE('',$,#1020);
#1015=PRODUCT_DEFINITION_SHAPE('',$,#1021);
#1016=PRODUCT_DEFINITION_SHAPE($,$,#16);
#1017=SHAPE_REPRESENTATION('',(#598,#660),#1005);
#1018=SHAPE_REPRESENTATION('',(#599),#1006);
#1019=PRODUCT_DEFINITION_CONTEXT('part definition',#1027,'design');
#1020=PRODUCT_DEFINITION('d1mini-case','d1mini-case v12',#1022,#1019);
#1021=PRODUCT_DEFINITION('HACKPAD','HACKPAD',#1023,#1019);
#1022=PRODUCT_DEFINITION_FORMATION('',$,#1029);
#1023=PRODUCT_DEFINITION_FORMATION('',$,#1030);
#1024=PRODUCT_RELATED_PRODUCT_CATEGORY('d1mini-case v12',
'd1mini-case v12',(#1029));
#1025=PRODUCT_RELATED_PRODUCT_CATEGORY('HACKPAD','HACKPAD',(#1030));
#1026=APPLICATION_PROTOCOL_DEFINITION('international standard',
'automotive_design',2009,#1027);
#1027=APPLICATION_CONTEXT(
'Core Data for Automotive Mechanical Design Process');
#1028=PRODUCT_CONTEXT('part definition',#1027,'mechanical');
#1029=PRODUCT('d1mini-case','d1mini-case v12',$,(#1028));
#1030=PRODUCT('HACKPAD','HACKPAD',$,(#1028));
#1031=PRESENTATION_STYLE_ASSIGNMENT((#1032));
#1032=SURFACE_STYLE_USAGE(.BOTH.,#1033);
#1033=SURFACE_SIDE_STYLE('',(#1034));
#1034=SURFACE_STYLE_FILL_AREA(#1035);
#1035=FILL_AREA_STYLE('Steel - Satin',(#1036));
#1036=FILL_AREA_STYLE_COLOUR('Steel - Satin',#1037);
#1037=COLOUR_RGB('Steel - Satin',0.627450980392157,0.627450980392157,0.627450980392157);
ENDSEC;
END-ISO-10303-21;
